<svg width="72" height="90" viewBox="0 0 72 90" fill="none" xmlns="http://www.w3.org/2000/svg">
<path fill-rule="evenodd" clip-rule="evenodd" d="M52.3933 37.5637H48.2107C47.6048 37.5637 47.0799 37.9799 46.9415 38.5703C46.6634 39.7581 46.1971 40.8854 45.5544 41.9194C45.2347 42.4335 45.3117 43.1007 45.7398 43.5291L48.6967 46.486L46.4858 48.6969L43.5289 45.7399C43.1008 45.3116 42.4345 45.2347 41.9192 45.5543C40.8853 46.1963 39.7582 46.6633 38.5704 46.9412C37.98 47.0789 37.5635 47.605 37.5635 48.2107V52.3935H34.4374V48.2107C34.4374 47.605 34.02 47.0789 33.4306 46.9412C32.2427 46.6633 31.1156 46.1972 30.0808 45.5543C29.5665 45.2356 28.9001 45.3116 28.4711 45.7399L25.5142 48.6969L23.3033 46.486L26.2602 43.5291C26.6892 43.1007 26.7653 42.4344 26.4456 41.9194C25.8039 40.8854 25.3375 39.7581 25.0597 38.5703C24.9211 37.9799 24.3952 37.5637 23.7902 37.5637H19.6074V34.4373H23.7902C24.3952 34.4373 24.9211 34.0198 25.0597 33.4307C25.3375 32.2419 25.8039 31.1155 26.4456 30.0806C26.7653 29.5665 26.6892 28.9002 26.2602 28.4709L23.3033 25.514L25.5142 23.3031L28.4711 26.2601C28.8992 26.6884 29.5665 26.7663 30.0808 26.4457C31.1156 25.8037 32.2418 25.3376 33.4306 25.0595C34.02 24.9211 34.4374 24.3959 34.4374 23.7893V19.6075H37.5635V23.7893C37.5635 24.395 37.98 24.9211 38.5704 25.0595C39.7582 25.3376 40.8853 25.8037 41.9192 26.4457C42.4335 26.7653 43.1008 26.6884 43.5289 26.2601L46.4858 23.3031L48.6967 25.514L45.7398 28.4709C45.3117 28.8993 45.2347 29.5665 45.5544 30.0806C46.1971 31.1146 46.6634 32.2419 46.9415 33.4307C47.0799 34.0198 47.6048 34.4373 48.2107 34.4373H52.3933V37.5637ZM53.153 31.8289H49.2048C48.963 31.064 48.6569 30.3233 48.2867 29.6127L51.0779 26.8205C51.4272 26.4719 51.6194 26.0074 51.6194 25.514C51.6194 25.0205 51.4272 24.5561 51.0779 24.2077L47.7923 20.9221C47.0725 20.2022 45.9002 20.2013 45.1793 20.9221L42.3881 23.7143C41.6775 23.3439 40.9361 23.037 40.171 22.7962V18.8479C40.171 17.8293 39.3417 17 38.3231 17H33.6769C32.6583 17 31.829 17.8284 31.829 18.8479V22.7962C31.0639 23.037 30.3234 23.3439 29.6119 23.7143L26.8197 20.9221C26.0998 20.2022 24.9275 20.2022 24.2077 20.9221L20.9221 24.2077C20.5728 24.5561 20.3806 25.0205 20.3806 25.514C20.3806 26.0074 20.5728 26.471 20.9221 26.8205L23.7133 29.6127C23.3441 30.3233 23.037 31.064 22.7962 31.8289H18.847C17.8286 31.8289 17 32.6584 17 33.6768V38.3232C17 39.3416 17.8286 40.1711 18.847 40.1711H22.7962C23.037 40.936 23.3441 41.6767 23.7133 42.3873L20.9221 45.1795C20.2015 45.9001 20.2015 47.0717 20.9221 47.7923L24.2077 51.0779C24.9275 51.7985 26.0998 51.7985 26.8207 51.0779L29.6119 48.2857C30.3225 48.6561 31.0639 48.963 31.829 49.2038V53.1521C31.829 54.1707 32.6583 55 33.6769 55H38.3231C39.3417 55 40.171 54.1707 40.171 53.1521V49.2038C40.9361 48.963 41.6766 48.6561 42.3874 48.2857L45.1793 51.0779C45.9002 51.7985 47.0725 51.7985 47.7923 51.0779L51.0779 47.7923C51.4265 47.4437 51.6194 46.9795 51.6194 46.486C51.6194 45.9926 51.4265 45.529 51.0779 45.1795L48.2858 42.3873C48.6559 41.6767 48.963 40.936 49.2038 40.1711H53.1521C54.1714 40.1711 55 39.3416 55 38.3232V33.6768C55 32.6584 54.1714 31.8289 53.153 31.8289Z" fill="#0C767C"/>
<path fill-rule="evenodd" clip-rule="evenodd" d="M36.5 41.2001C33.9083 41.2001 31.7997 39.0915 31.7997 36.4994C31.7997 33.9075 33.9083 31.7999 36.5 31.7999C39.0917 31.7999 41.2003 33.9075 41.2003 36.4994C41.2003 39.0915 39.0917 41.2001 36.5 41.2001ZM36.5 29C32.3646 29 29 32.3637 29 36.4994C29 40.6353 32.3646 44 36.5 44C40.6354 44 44 40.6353 44 36.4994C44 32.3637 40.6354 29 36.5 29Z" fill="#0C767C"/>
<path fill-rule="evenodd" clip-rule="evenodd" d="M4.87161 35H1.12839C0.505316 35 0 35.448 0 36C0 36.5522 0.505316 37 1.12839 37H4.87161C5.49448 37 6 36.5522 6 36C6 35.448 5.49448 35 4.87161 35Z" fill="#0C767C"/>
<path fill-rule="evenodd" clip-rule="evenodd" d="M70.8716 35H67.1284C66.5055 35 66 35.448 66 36C66 36.5522 66.5055 37 67.1284 37H70.8716C71.4955 37 72 36.5522 72 36C72 35.448 71.4955 35 70.8716 35Z" fill="#0C767C"/>
<path fill-rule="evenodd" clip-rule="evenodd" d="M16.5959 56.4041C16.0571 55.8653 15.1826 55.8653 14.6428 56.4041L11.4041 59.6427C10.8653 60.1827 10.8653 61.057 11.4041 61.5957C11.9438 62.1348 12.8174 62.1348 13.3572 61.5957L16.5959 58.3571C17.1347 57.8183 17.1347 56.9438 16.5959 56.4041Z" fill="#0C767C"/>
<path fill-rule="evenodd" clip-rule="evenodd" d="M61.5959 11.4048C61.0564 10.8651 60.1826 10.8651 59.6428 11.4048L56.4043 14.6436C55.8652 15.1823 55.8652 16.0566 56.4043 16.5956C56.9438 17.1353 57.8174 17.1343 58.3574 16.5956L61.5959 13.3568C62.1347 12.818 62.1347 11.9438 61.5959 11.4048Z" fill="#0C767C"/>
<path fill-rule="evenodd" clip-rule="evenodd" d="M36 0C35.448 0 35 0.505517 35 1.12839V4.87161C35 5.49549 35.448 6 36 6C36.5527 6 37 5.49549 37 4.87161V1.12839C37 0.505517 36.5527 0 36 0Z" fill="#0C767C"/>
<path fill-rule="evenodd" clip-rule="evenodd" d="M61.5959 59.6429L58.3574 56.4043C57.8174 55.8652 56.9438 55.8652 56.4043 56.4043C55.8652 56.944 55.8652 57.8183 56.4043 58.3573L59.6428 61.5959C60.1826 62.1347 61.0564 62.1347 61.5959 61.5959C62.1347 61.0572 62.1347 60.1827 61.5959 59.6429Z" fill="#0C767C"/>
<path fill-rule="evenodd" clip-rule="evenodd" d="M16.5959 14.6434L13.3572 11.4048C12.8174 10.8651 11.9438 10.8651 11.4041 11.4048C10.8653 11.9437 10.8653 12.8179 11.4041 13.3566L14.6428 16.5952C15.1826 17.1349 16.0562 17.1349 16.5959 16.5952C17.1347 16.0563 17.1347 15.1821 16.5959 14.6434Z" fill="#0C767C"/>
<path fill-rule="evenodd" clip-rule="evenodd" d="M60.9912 32.5679C59.6041 20.7827 50.2239 11.4393 38.4453 10.0097C37.7392 9.92324 37.0957 10.4243 37.0098 11.1281C36.9227 11.8315 37.4258 12.4712 38.1328 12.5577C48.8296 13.8561 57.1771 22.2068 58.4309 32.8666C58.5079 33.5197 59.0643 34 59.7088 34C59.7589 34 59.8098 33.9975 59.8607 33.9911C60.5679 33.9092 61.0735 33.272 60.9912 32.5679Z" fill="#0C767C"/>
<path fill-rule="evenodd" clip-rule="evenodd" d="M47.4276 74.4553C47.4276 74.8816 47.0635 75.2423 46.6331 75.2423H26.5714C26.1401 75.2423 25.7769 74.8816 25.7769 74.4553V72.5852C25.7769 72.159 26.1401 71.7982 26.5714 71.7982H46.6331C47.0635 71.7982 47.4276 72.159 47.4276 72.5852V74.4553ZM47.4276 80.5227C47.4276 80.9489 47.0635 81.3096 46.6331 81.3096H26.5714C26.1401 81.3096 25.7769 80.9489 25.7769 80.5227V78.6525C25.7769 78.2263 26.1401 77.8656 26.5714 77.8656H46.6331C47.0635 77.8656 47.4276 78.2263 47.4276 78.6525V80.5227ZM39.8212 86.8975C39.8212 87.1573 39.6004 87.3767 39.3386 87.3767H33.8652C33.6041 87.3767 33.3824 87.1573 33.3824 86.8975V83.9329H39.8212V86.8975ZM61.8427 38.0364C61.1162 37.9445 60.454 38.4536 60.3622 39.1722C59.4602 46.2359 55.4354 52.4681 49.3201 56.271C46.6838 57.9105 45.1105 60.7168 45.1105 63.7764V69.175H28.094V63.657C28.094 60.694 26.53 57.8942 24.0139 56.351C16.8976 51.988 12.6493 44.4407 12.6493 36.1619C12.6493 24.2079 21.6884 14.0847 33.6748 12.6135C34.4003 12.5252 34.9163 11.8695 34.8261 11.1508C34.736 10.4321 34.0749 9.92007 33.3494 10.0103C20.105 11.6353 10 22.917 10 36.1619C10 40.7317 11.2001 45.2349 13.4704 49.1835C15.6719 53.0119 18.835 56.2619 22.6192 58.5819C24.3626 59.6503 25.4447 61.595 25.4447 63.657V69.3655C24.0987 69.829 23.1276 71.0961 23.1276 72.5852V74.4553C23.1276 75.247 23.4035 75.9747 23.8623 76.5539C23.4035 77.1331 23.1276 77.8609 23.1276 78.6525V80.5227C23.1276 82.4035 24.6724 83.9329 26.5704 83.9329H30.7331V86.8975C30.7331 88.6081 32.1383 90 33.8652 90H39.3374C41.0646 90 42.4695 88.6081 42.4695 86.8975V83.9329H46.6322C48.5312 83.9329 50.075 82.4025 50.075 80.5227V78.6525C50.075 77.8609 49.7991 77.1331 49.3403 76.5539C49.7991 75.9747 50.075 75.247 50.075 74.4553V72.5852C50.075 71.0961 49.1049 69.829 47.7579 69.3655V63.7764C47.7579 61.6251 48.8676 59.6493 50.7283 58.4925C57.5171 54.2706 61.9861 47.3482 62.9894 39.5022C63.0812 38.7833 62.5682 38.1266 61.8427 38.0364Z" fill="#0C767C"/>
</svg>
