<svg width="91" height="76" viewBox="0 0 91 76" fill="none" xmlns="http://www.w3.org/2000/svg">
<mask id="mask0" mask-type="alpha" maskUnits="userSpaceOnUse" x="0" y="0" width="91" height="76">
<path fill-rule="evenodd" clip-rule="evenodd" d="M0 0H91V76H0V0Z" fill="white"/>
</mask>
<g mask="url(#mask0)">
<path fill-rule="evenodd" clip-rule="evenodd" d="M49.7247 5.96967L46.4134 9.27747L43.404 9.80307C42.1655 10.0196 40.9185 9.73651 39.8948 9.00555C38.8708 8.27364 38.1987 7.18738 38.0016 5.94575L37.7712 4.49022C37.7601 4.42271 37.785 4.37084 37.8082 4.34052C37.8305 4.30997 37.8719 4.27112 37.9407 4.26165L48.2395 2.82768C48.3177 2.81654 48.3945 2.8111 48.4722 2.8111C49.0924 2.8111 49.6756 3.15526 49.9699 3.71402L50.6633 5.03145L49.7247 5.96967ZM37.9961 18.964C37.4814 19.4785 36.7963 19.7615 36.0688 19.7615C35.3413 19.7615 34.6561 19.4785 34.1414 18.964L32.7409 17.5641L32.7399 17.5632L28.6976 13.5216C28.6947 13.5197 28.6928 13.518 28.6909 13.5161L27.4404 12.2669C26.3785 11.2048 26.3785 9.47643 27.4404 8.41434C28.503 7.352 30.2322 7.352 31.2951 8.41434L32.066 9.18509C32.0707 9.18959 32.0745 9.19528 32.079 9.19978L33.5416 10.6598L37.9961 15.1121C39.0578 16.1742 39.0578 17.9017 37.9961 18.964ZM30.8553 23.2998C30.3405 23.814 29.6566 24.0973 28.9279 24.0973C28.2004 24.0973 27.5162 23.814 27.0015 23.2998L23.9004 20.2002C23.8988 20.1983 23.8978 20.1973 23.8959 20.1954L22.9582 19.2582C21.8956 18.1961 21.8956 16.4677 22.9582 15.4054V15.4063C24.0208 14.3442 25.7481 14.3442 26.811 15.4044L30.8562 19.4479C31.9181 20.51 31.9181 22.2374 30.8553 23.2998ZM24.1154 28.0352C23.0535 29.0972 21.3242 29.0972 20.2616 28.0352L18.1613 25.9356C17.0994 24.8744 17.0994 23.1461 18.1613 22.084C19.2229 21.0226 20.9503 21.0226 22.0131 22.0821L23.3331 23.4004L24.1154 24.1833C24.6301 24.6977 24.9142 25.3816 24.9142 26.1087C24.9142 26.8369 24.6301 27.5207 24.1154 28.0352ZM33.9646 3.46318C34.4414 2.98685 35.0654 2.71114 35.7327 2.673C35.7105 2.70001 35.6875 2.72582 35.6662 2.75448C35.2043 3.3772 35.0173 4.1425 35.1384 4.90757L35.369 6.36215C35.6782 8.31533 36.7354 10.0233 38.3452 11.1733C38.4729 11.264 38.6026 11.35 38.7348 11.4325C38.2089 11.3287 37.7257 11.0724 37.338 10.6849L35.4827 8.83145L33.9582 7.30771C32.9039 6.24467 32.9056 4.52267 33.9646 3.46318ZM90.6089 48.9762L83.7301 42.0999C82.8201 41.1913 81.6103 40.6896 80.3235 40.6896C79.3794 40.6896 78.4777 40.9608 77.7037 41.4632L71.8312 35.5944L73.8678 33.5598C76.0385 31.3872 76.0385 27.8528 73.8659 25.6793C72.9291 24.7449 71.7184 24.1833 70.4157 24.0703C70.9769 22.1747 70.5112 20.0353 69.0171 18.5412C68.1443 17.6686 67.0333 17.1217 65.829 16.9599C66.079 16.3215 66.2093 15.6349 66.2093 14.929C66.2093 13.4401 65.6299 12.0412 64.5766 10.9902C63.6064 10.0205 62.3641 9.48377 61.0932 9.38027C61.6328 7.49554 61.1627 5.37941 59.6806 3.89711C58.627 2.8452 57.2274 2.26513 55.738 2.26513C54.6401 2.26513 53.5921 2.58063 52.6942 3.16805L52.3286 2.47238C51.4762 0.853182 49.6848 -0.0656112 47.8715 0.187833L39.468 1.35841C38.4812 0.480359 37.224 0 35.892 0C34.4516 0 33.0973 0.560893 32.0781 1.57941C31.1088 2.55007 30.5877 3.8019 30.5138 5.07504C30.1415 4.9945 29.7573 4.9521 29.3677 4.9521C27.9274 4.9521 26.5731 5.51276 25.5557 6.53056C24.081 8.00433 23.6423 10.1259 24.2364 11.9867C23.0795 12.1255 21.9584 12.6362 21.0726 13.5225C19.6858 14.9077 19.2146 16.8663 19.6571 18.6428C18.4231 18.7409 17.2169 19.2591 16.2756 20.2002C14.1734 22.3014 14.1734 25.7191 16.2756 27.8203L18.375 29.9199C18.6075 30.1511 18.8554 30.3557 19.1156 30.536C19.3488 32.0803 19.9616 33.5403 20.8948 34.7839L13.2956 42.3801C11.4304 41.1709 8.90419 41.3826 7.27046 43.0158L0.391452 49.8913C-0.449821 50.7333 0.157317 52.1666 1.33486 52.1666C1.6754 52.1666 2.01712 52.0361 2.27709 51.776L9.1561 44.9005C9.99476 44.0623 11.3593 44.0613 12.1979 44.9005L16.4773 49.1778C16.9984 49.698 17.8418 49.698 18.3629 49.1778C18.8833 48.6579 18.8833 47.8142 18.3629 47.294L15.2573 44.19L23.6561 35.7934C24.1765 35.2723 24.1765 34.4295 23.6561 33.9094C22.9665 33.2201 22.4406 32.3939 22.1046 31.4936C22.1326 31.4936 22.1603 31.4955 22.188 31.4955C23.5691 31.4955 24.9493 30.9699 26.001 29.9199C26.9053 29.0148 27.4477 27.8454 27.5579 26.586C28.0004 26.7019 28.4596 26.762 28.9289 26.762C30.3683 26.762 31.7226 26.2021 32.7409 25.1836C33.6018 24.323 34.1101 23.2406 34.2647 22.119C34.8367 22.3208 35.4448 22.4272 36.0688 22.4272C37.5091 22.4272 38.8625 21.8665 39.8808 20.8487C41.7416 18.9889 41.9534 16.0975 40.5204 14.001C41.4804 13.7724 42.3617 13.2847 43.0772 12.5696C43.094 12.5528 43.1087 12.5353 43.1246 12.5187C43.3708 12.5002 43.617 12.4716 43.8632 12.428L46.9513 11.8896C47.3326 11.9081 47.7084 11.7655 47.9779 11.4843L48.0018 11.4602H48.0025L53.2433 6.2224C53.2571 6.20843 53.2701 6.19564 53.2831 6.18071L53.682 5.78184C54.232 5.23231 54.9623 4.92984 55.738 4.92984C56.5155 4.92984 57.2459 5.23231 57.7959 5.78113C58.9289 6.91546 58.9289 8.75945 57.7959 9.89094L56.6961 10.9912C56.175 11.5111 56.175 12.3548 56.6961 12.8749C57.2163 13.3958 58.0606 13.3949 58.5808 12.8749L58.5855 12.8702C59.7195 11.7425 61.5605 11.7442 62.6928 12.8759C63.2417 13.4235 63.5443 14.1526 63.5443 14.929C63.5443 15.7052 63.2417 16.4352 62.6928 16.9848L61.1432 18.5327C61.1404 18.5365 61.1375 18.5393 61.1347 18.5421C60.6145 19.063 60.6155 19.9058 61.1366 20.4259C61.657 20.9449 62.5002 20.9449 63.0213 20.425L63.026 20.4202C63.5722 19.8752 64.2998 19.5756 65.0773 19.5756C65.8548 19.5756 66.5845 19.8771 67.1324 20.425C68.2654 21.5584 68.2654 23.4023 67.1324 24.5348L65.9863 25.6803C65.4662 26.2014 65.4652 27.0441 65.9854 27.564C66.5056 28.0851 67.3499 28.0851 67.8701 27.5659C68.4211 27.0174 69.1514 26.7146 69.9271 26.7146C70.7036 26.7146 71.434 27.0174 71.9821 27.564C73.1151 28.6984 73.1151 30.5435 71.9831 31.676L69.0199 34.6377C69.0142 34.6432 69.0088 34.647 69.004 34.6515C68.9995 34.6571 68.9948 34.6626 68.9903 34.6673L51.8816 51.7658C50.7197 52.9271 49.1765 53.5664 47.5345 53.5664C45.8922 53.5664 44.3493 52.9271 43.1883 51.7658L42.9468 51.5244C42.4255 51.0043 41.5814 51.0043 41.0612 51.5244L31.829 60.7529L22.1536 51.0822C21.6325 50.562 20.7884 50.562 20.268 51.0822C19.7478 51.6021 19.7478 52.4458 20.268 52.966L31.1174 63.8098C31.956 64.6481 31.956 66.0119 31.1174 66.8502L24.2374 73.7256C23.7172 74.2465 23.7172 75.0895 24.2374 75.6104C24.4985 75.8704 24.8391 76 25.1808 76C25.5213 76 25.8631 75.8704 26.123 75.6104L33.002 68.734C34.6367 67.1008 34.8479 64.5758 33.6379 62.7115L42.0423 54.3121C43.5966 55.5556 45.5135 56.2311 47.5336 56.2311C49.8875 56.2311 52.1008 55.3142 53.7663 53.6505L69.9465 37.4791L75.7451 43.274L59.1742 59.836L55.7176 56.3811C55.1974 55.8609 54.3531 55.8609 53.8329 56.3811C53.3118 56.9019 53.3118 57.7447 53.8329 58.2658L57.3644 61.7955C56.8598 62.5682 56.5897 63.4702 56.5897 64.415C56.5897 65.7 57.0904 66.9094 58.0004 67.819L64.8792 74.6954C65.4003 75.2153 66.2437 75.2153 66.7648 74.6954C67.2852 74.1745 67.2852 73.3305 66.7648 72.8106L59.8851 65.9342C59.4787 65.529 59.2557 64.9885 59.2557 64.415C59.2557 63.8404 59.4787 63.3008 59.8851 62.8948L78.8036 43.9855C79.21 43.5793 79.7505 43.3552 80.3245 43.3552C80.8994 43.3552 81.439 43.5793 81.8454 43.9855L88.7242 50.861C89.2455 51.3809 90.0897 51.3809 90.6098 50.861C91.1302 50.3401 91.1302 49.4962 90.6089 48.9762Z" fill="#0A767D"/>
</g>
</svg>
