<svg width="76" height="77" viewBox="0 0 76 77" fill="none" xmlns="http://www.w3.org/2000/svg">
<mask id="mask0" mask-type="alpha" maskUnits="userSpaceOnUse" x="0" y="0" width="76" height="77">
<path fill-rule="evenodd" clip-rule="evenodd" d="M0.00012207 0H75.8472V77H0.00012207V0Z" fill="white"/>
</mask>
<g mask="url(#mask0)">
<path fill-rule="evenodd" clip-rule="evenodd" d="M60.8767 0H14.9707C11.738 0 8.65989 1.00882 6.06903 2.91698C5.56425 3.28894 5.45801 3.99798 5.83216 4.49989C6.20612 5.00279 6.91854 5.10787 7.42433 4.7365C9.61987 3.1191 12.2295 2.26368 14.9707 2.26368H60.8767C67.8766 2.26368 73.5715 7.92839 73.5715 14.8911V44.8399C73.5715 51.8026 67.8766 57.4673 60.8767 57.4673H41.4735C41.005 57.4673 40.5523 57.6616 40.2309 58.0015L24.6479 74.4825C24.3117 74.8382 23.9218 74.7371 23.7698 74.6776C23.6178 74.618 23.264 74.4253 23.264 73.9374V59.1639C23.264 58.2286 22.4987 57.4673 21.5583 57.4673H14.9707C7.97085 57.4673 2.27589 51.8026 2.27589 44.8407V14.8911C2.27589 12.3296 3.04194 9.86322 4.49259 7.75996C4.84759 7.24382 4.71555 6.53959 4.19706 6.18647C3.67917 5.83235 2.97017 5.96389 2.61537 6.47923C0.903857 8.96148 0.00012207 11.8706 0.00012207 14.8911V44.8399C0.00012207 53.051 6.71554 59.7309 14.9707 59.7309H20.9882V73.9374C20.9882 75.1999 21.7506 76.317 22.9312 76.7822C23.3029 76.9288 23.6895 77 24.0714 77C24.9011 77 25.7101 76.6631 26.3062 76.0335L41.7201 59.7309H60.8767C69.1317 59.7309 75.8473 53.051 75.8473 44.8407V14.8911C75.8473 6.67975 69.1317 0 60.8767 0Z" fill="#0C767C"/>
</g>
<path fill-rule="evenodd" clip-rule="evenodd" d="M54.0083 17.9915C50.0193 14.0028 43.5286 14.0028 39.5399 17.9915L37.5366 19.9946C37.5309 19.9993 37.5143 20.016 37.4841 20.016C37.4532 20.016 37.4371 20.0001 37.4316 19.9946L35.4601 18.0233C31.4714 14.0348 24.9807 14.0348 20.9917 18.0233C17.0028 22.0119 17.0028 28.5022 20.9917 32.4909L35.8078 47.3058C36.2563 47.7535 36.8518 48 37.4858 48C38.1187 48 38.7152 47.7535 39.1628 47.305L47.3044 39.1624C47.7537 38.7139 47.7537 37.9864 47.3044 37.5379C46.8559 37.0887 46.1283 37.0887 45.6798 37.5379L37.5375 45.6806C37.5326 45.6861 37.5159 45.7019 37.4858 45.7019C37.4546 45.7019 37.4379 45.6861 37.4332 45.6806L22.6173 30.8654C19.5245 27.7731 19.5245 22.7411 22.6173 19.6479C25.7099 16.5553 30.7422 16.5553 33.8347 19.6479L35.8062 21.6191C36.2547 22.0677 36.8504 22.3142 37.4841 22.3142C38.1179 22.3142 38.7135 22.0677 39.1612 21.6191L41.1644 19.6162C44.2578 16.5236 49.2901 16.5236 52.3827 19.6162C55.4755 22.7085 55.4755 27.7405 52.3827 30.8337L48.9514 34.265C48.5029 34.7143 48.5029 35.4418 48.9522 35.8903C49.4007 36.3387 50.1283 36.3395 50.577 35.8903L54.0083 32.4583C57.9972 28.4697 57.9972 21.9802 54.0083 17.9915Z" fill="#0C767C"/>
</svg>
